<svg width="2040" height="1336" id="Layer_1" data-name="Layer 1" xmlns="http://www.w3.org/2000/svg" xmlns:xlink="http://www.w3.org/1999/xlink" viewBox="0 0 2040 1336">
    <defs>
        <style>.cls-1{fill:#fff;}.cls-2{fill:url(#linear-gradient);}.cls-3{fill:url(#linear-gradient-2);}.cls-4{opacity:0.6;}.cls-5{mask:url(#mask);}.cls-6{fill:url(#linear-gradient-3);}.cls-7{fill:url(#radial-gradient);}</style>
        <linearGradient id="linear-gradient" x1="-1237.53" y1="-6879" x2="-1237.53" y2="-5934.91" gradientTransform="translate(1398.57 7284.48)" gradientUnits="userSpaceOnUse">
            <stop offset="0.38"/>
            <stop offset="0.84" stop-opacity="0"/>
        </linearGradient>
        <linearGradient id="linear-gradient-2" x1="6367.96" y1="3577.97" x2="6367.96" y2="4205.37" gradientTransform="translate(-4447.63 -3013.71)" gradientUnits="userSpaceOnUse">
            <stop offset="0.61"/>
            <stop offset="1" stop-opacity="0"/>
        </linearGradient>
        <mask id="mask" x="-755.43" y="152.51" width="3724.69" height="1323.98" maskUnits="userSpaceOnUse">
            <path class="cls-1" d="M2000.35,1043.18c66,51.79,139,77,223.46,77v-4.51c-83.37,0-155.55-24.86-220.68-76C1945,994,1897.63,932,1851.82,872.08c-46-135.34-93.51-275.25-152-378.59-31.6-55.82-63.78-96.83-98.41-125.38-39-32.19-80.13-47.84-125.62-47.84s-86.57,15.65-125.61,47.84c-34.62,28.55-66.81,69.56-98.41,125.38-58.49,103.34-106,243.25-152,378.59C1054,932,1006.59,994,948.48,1039.63c-65.13,51.14-137.31,76-220.67,76s-155.54-24.86-220.67-76C449,994,401.64,932,355.83,872.08c-46-135.34-93.5-275.25-152-378.59-31.59-55.82-63.78-96.83-98.41-125.38-39-32.19-80.13-47.84-125.61-47.84v4.52c44.39,0,84.54,15.31,122.74,46.8,34.19,28.19,66,68.79,97.36,124.12,49.37,87.24,91,200.84,130.46,315.7-38.31-90.37-78.81-179.13-126.65-248-66-95-139.23-141.18-223.91-141.18v4.52C62.9,426.76,134.93,472.3,200,566c51,73.45,93.76,169.87,134.41,266.65-39.55-72.46-81.27-144.15-130.88-199.34-66-73.41-139.18-109.09-223.74-109.09v4.51c83.21,0,155.3,35.2,220.38,107.6,52.57,58.47,96.35,135.83,138.12,212.9-40.79-53-83.68-105.75-135-146.08-65.95-51.79-139-77-223.45-77v4.51c83.36,0,155.54,24.86,220.67,76C258.6,752.32,306,814.28,351.79,874.24c46,135.34,93.5,275.25,152,378.59,31.59,55.82,63.78,96.83,98.41,125.38,39,32.19,80.13,47.83,125.61,47.83s86.57-15.64,125.62-47.83c34.62-28.55,66.81-69.56,98.4-125.38,58.49-103.34,106-243.25,152-378.59,45.81-60,93.19-121.92,151.31-167.55,65.12-51.14,137.3-76,220.66-76s155.55,24.86,220.68,76c58.11,45.63,105.5,107.59,151.31,167.54,46,135.35,93.5,275.26,152,378.6,31.6,55.82,63.79,96.83,98.42,125.38,39,32.19,80.13,47.83,125.62,47.83v-4.51c-44.4,0-84.55-15.31-122.75-46.8-34.19-28.19-66-68.79-97.36-124.13-49.37-87.23-91-200.83-130.46-315.68,38.31,90.36,78.81,179.12,126.65,248,66,95,139.23,141.18,223.92,141.18v-4.52c-83.1,0-155.13-45.54-220.22-139.23-51-73.45-93.76-169.88-134.41-266.66,39.55,72.47,81.27,144.16,130.88,199.35,66,73.4,139.18,109.09,223.75,109.09v-4.52c-83.22,0-155.31-35.19-220.39-107.59-52.57-58.47-96.35-135.83-138.12-212.9C1906.09,950.06,1949,1002.85,2000.35,1043.18ZM1255.7,495.71c31.32-55.33,63.16-95.93,97.35-124.12,38.2-31.49,78.35-46.8,122.74-46.8s84.55,15.31,122.75,46.8c34.19,28.19,66,68.79,97.35,124.12,49.38,87.24,91,200.85,130.47,315.71-38.31-90.37-78.81-179.14-126.65-248-66-95-139.23-141.18-223.92-141.18s-157.92,46.18-223.91,141.18c-47.83,68.86-88.33,157.62-126.64,248C1164.72,696.55,1206.33,583,1255.7,495.71Zm574.72,336.93c-39.56-72.47-81.27-144.15-130.88-199.34-66-73.41-139.18-109.09-223.75-109.09s-157.74,35.68-223.73,109.09c-49.61,55.19-91.33,126.88-130.88,199.34,40.66-96.78,83.39-193.2,134.41-266.65,65.08-93.69,137.11-139.23,220.2-139.23S1630.92,472.3,1696,566C1747,639.44,1789.76,735.86,1830.42,832.64ZM504.35,1043.18c66,51.79,139,77,223.46,77s157.5-25.17,223.45-77c51.36-40.33,94.26-93.12,135-146.08-41.77,77.07-85.55,154.43-138.11,212.9-65.08,72.4-137.17,107.59-220.38,107.59S572.51,1182.4,507.43,1110c-52.57-58.47-96.35-135.83-138.12-212.9C410.1,950.06,453,1002.85,504.35,1043.18Zm578.08-129.51C1041.77,1010.45,999,1106.88,948,1180.33c-65.08,93.69-137.11,139.23-220.21,139.23S572.69,1274,507.6,1180.33c-51-73.45-93.76-169.88-134.41-266.66,39.55,72.47,81.27,144.16,130.88,199.35,66,73.4,139.18,109.09,223.74,109.09S885.56,1186.42,951.55,1113C1001.16,1057.83,1042.88,986.14,1082.43,913.67ZM947.91,1250.6c-31.32,55.34-63.17,95.94-97.36,124.13-38.2,31.49-78.34,46.8-122.74,46.8s-84.54-15.31-122.74-46.8c-34.19-28.19-66-68.79-97.36-124.13-49.37-87.23-91-200.83-130.46-315.68,38.31,90.36,78.81,179.12,126.65,248,66,95,139.23,141.18,223.91,141.18s157.92-46.18,223.91-141.18c47.84-68.87,88.34-157.64,126.65-248C1038.9,1049.76,997.28,1163.37,947.91,1250.6Zm751.34-547.46c-66-51.79-139-77-223.46-77s-157.5,25.17-223.45,77c-51.35,40.33-94.25,93.12-135,146.08,41.77-77.07,85.55-154.43,138.11-212.9,65.09-72.4,137.17-107.6,220.38-107.6s155.31,35.2,220.39,107.6c52.57,58.47,96.35,135.83,138.12,212.9C1793.51,796.26,1750.61,743.47,1699.25,703.14Z"/>
            <rect class="cls-2" x="-437.48" y="405.48" width="1197.05" height="944.09" transform="translate(-716.48 1038.57) rotate(-90)"/>
            <rect class="cls-3" x="1321.81" y="564.26" width="1197.05" height="627.4" transform="translate(2798.29 -1042.37) rotate(90)"/>
        </mask>
        <linearGradient id="linear-gradient-3" x1="1106.92" y1="373.8" x2="1106.92" y2="1444.67" gradientUnits="userSpaceOnUse">
            <stop offset="0" stop-color="#005cff"/>
            <stop offset="0.23" stop-color="#005cff" stop-opacity="0.52"/>
            <stop offset="0.39" stop-color="#005cff" stop-opacity="0.2"/>
            <stop offset="0.79" stop-color="#005cff" stop-opacity="0"/>
        </linearGradient>
        <radialGradient id="radial-gradient" cx="1263.34" cy="478.1" fx="1167.9950234837158" fy="468.27278771024385" r="548.67" gradientUnits="userSpaceOnUse">
            <stop offset="0.09" stop-color="#7ed3f4"/>
            <stop offset="0.48" stop-color="#fff" stop-opacity="0"/>
        </radialGradient>
    </defs>
    <g class="cls-4">
        <g class="cls-5">
            <rect class="cls-6" x="-755.43" y="152.51" width="3724.69" height="1108.63"/>
        </g>
        <path class="cls-7" d="M2223.71,1426c-45.48,0-86.57-15.65-125.61-47.83-34.62-28.54-66.81-69.56-98.4-125.38-58.55-103.42-106.11-243.48-152.11-378.93-45.94-135.26-93.44-275.12-151.77-378.18-31.33-55.33-63.17-95.94-97.36-124.13-38.21-31.49-78.36-46.81-122.76-46.81s-84.56,15.32-122.76,46.81c-34.19,28.19-66,68.8-97.36,124.13-58.33,103.06-105.83,242.92-151.76,378.18-46,135.45-93.56,275.51-152.1,378.94-31.6,55.82-63.79,96.83-98.41,125.37-39,32.18-80.12,47.83-125.6,47.83s-86.56-15.65-125.6-47.83c-34.62-28.54-66.81-69.56-98.4-125.38C445.16,1149.37,397.6,1009.31,351.6,873.86,305.66,738.6,258.16,598.74,199.83,495.68c-31.32-55.33-63.17-95.94-97.36-124.13-38.21-31.49-78.36-46.81-122.76-46.81v-4.47c45.48,0,86.56,15.65,125.6,47.83,34.62,28.55,66.81,69.56,98.41,125.38C262.26,596.91,309.83,737,355.83,872.42c45.93,135.25,93.43,275.11,151.76,378.17,31.33,55.34,63.17,95.94,97.37,124.13,38.2,31.5,78.35,46.81,122.75,46.81s84.56-15.31,122.76-46.81c34.19-28.19,66-68.79,97.36-124.13,58.33-103.06,105.83-242.92,151.76-378.17,46-135.45,93.56-275.51,152.1-378.94,31.6-55.82,63.79-96.83,98.41-125.38,39-32.18,80.12-47.83,125.6-47.83s86.56,15.65,125.6,47.83c34.62,28.55,66.81,69.56,98.41,125.38,58.54,103.43,106.11,243.49,152.11,378.94,45.93,135.25,93.43,275.11,151.77,378.17,31.32,55.34,63.16,95.94,97.36,124.13,38.2,31.5,78.36,46.81,122.76,46.81Z"/>
    </g>
</svg>
